<svg xmlns="http://www.w3.org/2000/svg" xmlns:xlink="http://www.w3.org/1999/xlink" width="500" zoomAndPan="magnify" viewBox="0 0 375 374.999991" height="500" preserveAspectRatio="xMidYMid meet" version="1.0"><defs><clipPath id="767bbd44ba"><path d="M 104 94 L 321 94 L 321 328 L 104 328 Z M 104 94 " clip-rule="nonzero"/></clipPath><clipPath id="89a3ca17da"><path d="M 414.753906 53.558594 L 350.90625 375.03125 L -28.679688 299.636719 L 35.167969 -21.832031 Z M 414.753906 53.558594 " clip-rule="nonzero"/></clipPath><clipPath id="51c3e15787"><path d="M 414.753906 53.558594 L 350.90625 375.03125 L -28.679688 299.636719 L 35.167969 -21.832031 Z M 414.753906 53.558594 " clip-rule="nonzero"/></clipPath><clipPath id="c3424d7be4"><path d="M 414.753906 53.558594 L 350.90625 375.03125 L -28.679688 299.636719 L 35.167969 -21.832031 Z M 414.753906 53.558594 " clip-rule="nonzero"/></clipPath><clipPath id="e5bd9a9db7"><path d="M 107 98 L 233 98 L 233 247 L 107 247 Z M 107 98 " clip-rule="nonzero"/></clipPath><clipPath id="e576486170"><path d="M 414.753906 53.558594 L 350.90625 375.03125 L -28.679688 299.636719 L 35.167969 -21.832031 Z M 414.753906 53.558594 " clip-rule="nonzero"/></clipPath><clipPath id="7785ae6176"><path d="M 414.753906 53.558594 L 350.90625 375.03125 L -28.679688 299.636719 L 35.167969 -21.832031 Z M 414.753906 53.558594 " clip-rule="nonzero"/></clipPath><clipPath id="5c6ba8564d"><path d="M 414.753906 53.558594 L 350.90625 375.03125 L -28.679688 299.636719 L 35.167969 -21.832031 Z M 414.753906 53.558594 " clip-rule="nonzero"/></clipPath><clipPath id="b0cbe82264"><path d="M 11 0 L 142 0 L 142 128 L 11 128 Z M 11 0 " clip-rule="nonzero"/></clipPath><clipPath id="b802dfbddf"><path d="M 414.753906 53.558594 L 350.90625 375.03125 L -28.679688 299.636719 L 35.167969 -21.832031 Z M 414.753906 53.558594 " clip-rule="nonzero"/></clipPath><clipPath id="6b7896b55a"><path d="M 414.753906 53.558594 L 350.90625 375.03125 L -28.679688 299.636719 L 35.167969 -21.832031 Z M 414.753906 53.558594 " clip-rule="nonzero"/></clipPath><clipPath id="dc0ce837bb"><path d="M 414.753906 53.558594 L 350.90625 375.03125 L -28.679688 299.636719 L 35.167969 -21.832031 Z M 414.753906 53.558594 " clip-rule="nonzero"/></clipPath><clipPath id="6ca0fef440"><path d="M 43 45 L 81 45 L 81 95 L 43 95 Z M 43 45 " clip-rule="nonzero"/></clipPath><clipPath id="92b95b41b1"><path d="M 414.753906 53.558594 L 350.90625 375.03125 L -28.679688 299.636719 L 35.167969 -21.832031 Z M 414.753906 53.558594 " clip-rule="nonzero"/></clipPath><clipPath id="420436c18e"><path d="M 414.753906 53.558594 L 350.90625 375.03125 L -28.679688 299.636719 L 35.167969 -21.832031 Z M 414.753906 53.558594 " clip-rule="nonzero"/></clipPath><clipPath id="263f124275"><path d="M 414.753906 53.558594 L 350.90625 375.03125 L -28.679688 299.636719 L 35.167969 -21.832031 Z M 414.753906 53.558594 " clip-rule="nonzero"/></clipPath><clipPath id="01fdaf2b58"><path d="M 266 288 L 353 288 L 353 374 L 266 374 Z M 266 288 " clip-rule="nonzero"/></clipPath><clipPath id="bec650ef4c"><path d="M 414.753906 53.558594 L 350.90625 375.03125 L -28.679688 299.636719 L 35.167969 -21.832031 Z M 414.753906 53.558594 " clip-rule="nonzero"/></clipPath><clipPath id="9c40b64819"><path d="M 414.753906 53.558594 L 350.90625 375.03125 L -28.679688 299.636719 L 35.167969 -21.832031 Z M 414.753906 53.558594 " clip-rule="nonzero"/></clipPath><clipPath id="782dbe2f4c"><path d="M 414.753906 53.558594 L 350.90625 375.03125 L -28.679688 299.636719 L 35.167969 -21.832031 Z M 414.753906 53.558594 " clip-rule="nonzero"/></clipPath></defs><g clip-path="url(#767bbd44ba)"><g clip-path="url(#89a3ca17da)"><g clip-path="url(#51c3e15787)"><g clip-path="url(#c3424d7be4)"><path fill="#fad0c4" d="M 280.609375 327.636719 C 254.460938 313.097656 229.820312 296.542969 204.574219 280.554688 C 178.164062 263.832031 136.980469 242.015625 118.785156 215.773438 C 76.089844 154.207031 137.023438 67.023438 208.132812 102.710938 C 245.972656 121.699219 265.496094 185.613281 281.796875 221.621094 C 296.269531 253.585938 310.207031 279.503906 320.53125 313.601562 L 280.609375 327.636719 " fill-opacity="1" fill-rule="evenodd"/></g></g></g></g><g clip-path="url(#e5bd9a9db7)"><g clip-path="url(#e576486170)"><g clip-path="url(#7785ae6176)"><g clip-path="url(#5c6ba8564d)"><path fill="#ffbca9" d="M 113.011719 134.488281 C 113.589844 133.621094 116.59375 129.21875 116.59375 129.21875 C 115.089844 139.855469 111.875 155.21875 115.804688 168.558594 C 121.675781 188.5 137.152344 206.507812 147.101562 218.253906 C 153.601562 225.933594 160.59375 233.445312 168.863281 239.253906 C 169.617188 239.78125 178.617188 245.070312 178.324219 245.90625 C 178.171875 246.339844 175.808594 245.242188 175.742188 245.210938 C 163.804688 240.023438 153.101562 230.800781 144.019531 221.699219 C 124.523438 202.164062 94.429688 162.367188 113.011719 134.488281 Z M 122.816406 120.175781 C 122.816406 120.175781 138.125 160.191406 153.285156 177.402344 C 153.835938 177.992188 154.382812 178.582031 154.929688 179.175781 C 156.03125 180.363281 157.269531 181.695312 157.203125 181.625 C 155.855469 180.25 154.550781 178.839844 153.285156 177.402344 C 152.617188 176.6875 151.949219 175.972656 151.28125 175.257812 C 146.96875 170.640625 142.5 166.160156 138.785156 161.03125 C 127.902344 146.011719 119.644531 124.328125 119.644531 124.328125 C 120.160156 123.605469 120.683594 122.890625 121.222656 122.1875 C 121.742188 121.507812 122.273438 120.839844 122.816406 120.175781 Z M 132.640625 110.207031 C 152.46875 111.3125 174.886719 117.886719 188.496094 129.050781 C 196.023438 135.226562 202.464844 142.667969 208.234375 150.476562 C 214.59375 159.074219 220.414062 167.988281 225.765625 177.25 C 227.445312 180.152344 229.082031 183.082031 230.617188 186.0625 C 231.125 187.050781 231.621094 188.046875 232.117188 189.039062 C 232.253906 189.324219 232.703125 190.144531 232.523438 189.886719 C 225.289062 179.371094 218.882812 168.4375 210.992188 158.339844 C 188.832031 129.988281 161.246094 115.222656 126.074219 116.445312 C 128.140625 114.230469 130.335938 112.144531 132.640625 110.207031 Z M 153.574219 98.109375 C 165.25 98.746094 176.992188 100.941406 187.617188 104.203125 C 193.667969 106.058594 199.355469 108.835938 205.113281 111.425781 C 206.007812 111.828125 206.898438 112.230469 207.789062 112.628906 C 209.558594 113.363281 211.316406 114.144531 213.050781 114.96875 C 213.140625 115.011719 211.480469 114.273438 210 113.613281 C 209.261719 113.289062 208.527344 112.960938 207.789062 112.628906 C 187.808594 104.347656 165.65625 101.8125 144.0625 102.378906 C 147.105469 100.714844 150.28125 99.28125 153.574219 98.109375 " fill-opacity="1" fill-rule="evenodd"/></g></g></g></g><g clip-path="url(#b0cbe82264)"><g clip-path="url(#b802dfbddf)"><g clip-path="url(#6b7896b55a)"><g clip-path="url(#dc0ce837bb)"><path fill="#fad0c4" d="M 119.332031 127.210938 C 91.929688 127.207031 65.144531 118.234375 37.714844 117.363281 C 33.65625 117.234375 12.933594 119.503906 12.113281 114.300781 C 10.945312 106.902344 13.121094 97.972656 14.195312 90.675781 C 14.996094 85.234375 15.296875 78.210938 17.96875 73.246094 C 19.160156 71.039062 44.003906 61.828125 50.242188 55.902344 C 54.585938 51.773438 57.570312 46.425781 60.632812 41.339844 C 72.144531 22.21875 72.835938 21.976562 93.449219 13.882812 C 96.84375 12.550781 130.722656 -2.332031 134.035156 -2.121094 C 134.320312 -2.101562 134.601562 -2.003906 134.804688 -1.796875 C 135.292969 -1.300781 141.007812 24.699219 141.023438 25.898438 C 141.089844 31.316406 138.601562 36.359375 138.339844 41.742188 C 137.621094 56.679688 140.039062 72.503906 139.699219 87.324219 C 139.542969 94.195312 136.179688 103.25 139.09375 109.824219 L 119.332031 127.210938 " fill-opacity="1" fill-rule="evenodd"/></g></g></g></g><g clip-path="url(#6ca0fef440)"><g clip-path="url(#92b95b41b1)"><g clip-path="url(#420436c18e)"><g clip-path="url(#263f124275)"><path fill="#ffbca9" d="M 59.683594 45.136719 C 56.855469 56.472656 55.277344 69.589844 63.246094 79.285156 C 67.980469 85.046875 77.117188 87.808594 80.5625 92.316406 C 80.90625 92.765625 81.164062 93.394531 80.648438 93.847656 C 78.175781 96.03125 71.46875 93.929688 68.917969 93.054688 C 65.394531 91.847656 62.191406 89.863281 59.265625 87.589844 C 55.824219 84.917969 39.941406 70.0625 44.011719 63.980469 L 59.683594 45.136719 " fill-opacity="1" fill-rule="evenodd"/></g></g></g></g><g clip-path="url(#01fdaf2b58)"><g clip-path="url(#bec650ef4c)"><g clip-path="url(#9c40b64819)"><g clip-path="url(#782dbe2f4c)"><path fill="#a7a19b" d="M 266.648438 326.117188 C 266.648438 326.117188 289.148438 341.59375 298.554688 347.558594 C 305.128906 351.730469 311.910156 355.558594 318.664062 359.425781 C 322.75 361.765625 342.035156 373.230469 342.035156 373.230469 L 352.765625 365.679688 C 352.765625 365.679688 351.9375 362.882812 350.949219 360.335938 C 349.601562 356.851562 333.03125 323.28125 327.34375 311.304688 C 323.75 303.734375 316.832031 288.472656 316.832031 288.472656 L 266.648438 326.117188 " fill-opacity="1" fill-rule="evenodd"/></g></g></g></g></svg>